<svg viewBox="0 0 25 25" xmlns="http://www.w3.org/2000/svg">
    <g id="surface1">
        <path fill="currentColor" style="stroke:none;fill-rule:nonzero;fill-opacity:1;" d="M 23.296875 16.625 C 22.027344 15.605469 20.863281 15.109375 19.734375 15.109375 C 18.105469 15.109375 16.933594 16.144531 15.871094 17.207031 C 15.75 17.328125 15.601562 17.386719 15.40625 17.386719 C 14.511719 17.386719 12.933594 16.265625 10.722656 14.054688 C 8.125 11.453125 7.140625 9.800781 7.800781 9.136719 C 9.59375 7.347656 10.152344 5.550781 7.410156 2.136719 C 6.425781 0.914062 5.464844 0.320312 4.46875 0.320312 C 3.128906 0.320312 2.109375 1.394531 1.210938 2.339844 C 1.054688 2.503906 0.90625 2.65625 0.761719 2.800781 C -0.253906 3.816406 -0.253906 6.035156 0.765625 8.734375 C 1.882812 11.695312 4.085938 14.917969 6.972656 17.804688 C 9.207031 20.039062 11.636719 21.84375 14 23.054688 C 16.066406 24.113281 18.066406 24.679688 19.636719 24.679688 C 20.621094 24.679688 21.421875 24.464844 21.949219 24.027344 C 23.019531 23.144531 25.011719 21.503906 25 19.554688 C 24.992188 18.507812 24.417969 17.527344 23.296875 16.625 Z M 23.296875 16.625 "/>
    </g>
</svg>