<svg xmlns="http://www.w3.org/2000/svg" viewBox="0 0 26 25">
    <g id="surface1">
        <path fill="currentColor" style=" stroke:none;fill-rule:nonzero;fill-opacity:1;" d="M 22.980469 3.550781 C 21.671875 2.242188 19.9375 1.527344 18.089844 1.527344 C 16.238281 1.527344 14.5 2.246094 13.191406 3.554688 L 12.507812 4.238281 L 11.8125 3.546875 C 10.503906 2.238281 8.761719 1.511719 6.910156 1.511719 C 5.066406 1.511719 3.328125 2.230469 2.023438 3.535156 C 0.714844 4.84375 -0.00390625 6.582031 0 8.433594 C 0 10.28125 0.726562 12.015625 2.035156 13.324219 L 11.988281 23.277344 C 12.125 23.414062 12.3125 23.488281 12.492188 23.488281 C 12.671875 23.488281 12.859375 23.421875 12.996094 23.28125 L 22.96875 13.34375 C 24.277344 12.035156 25 10.296875 25 8.449219 C 25.003906 6.597656 24.289062 4.859375 22.980469 3.550781 Z M 21.964844 12.332031 L 12.492188 21.765625 L 3.042969 12.316406 C 2.003906 11.277344 1.429688 9.902344 1.429688 8.433594 C 1.429688 6.964844 2 5.585938 3.035156 4.550781 C 4.070312 3.519531 5.449219 2.945312 6.910156 2.945312 C 8.378906 2.945312 9.761719 3.519531 10.800781 4.558594 L 12 5.753906 C 12.28125 6.035156 12.730469 6.035156 13.011719 5.753906 L 14.199219 4.570312 C 15.238281 3.53125 16.621094 2.957031 18.082031 2.957031 C 19.546875 2.957031 20.925781 3.53125 21.964844 4.5625 C 23 5.601562 23.570312 6.980469 23.570312 8.449219 C 23.574219 9.917969 23 11.292969 21.964844 12.332031 Z M 21.964844 12.332031 "/>
    </g>
</svg>