<svg xmlns="http://www.w3.org/2000/svg" viewBox="0 0 50 50">
    <path fill="currentColor" d="M 24 2 C 15.688935 2 9 9.2115738 9 18 C 9 18.906386 9.087356 19.778366 9.2167969 20.619141 C 9.2167969 20.619141 9.2167969 20.621094 9.2167969 20.621094 C 9.3042708 21.530451 9.4505479 22.777976 9.5996094 24.013672 C 9.5382339 24.009442 9.4799584 24 9.4160156 24 C 8.892849 24 8.3491943 24.27396 8.0195312 24.652344 C 7.6898683 25.030728 7.5075614 25.471032 7.3691406 25.972656 C 7.092299 26.975905 7 28.278242 7 30 C 7 31.462054 7.8687181 32.900151 8.8007812 34.253906 C 9.266813 34.930784 9.7628682 35.547083 10.248047 36.029297 C 10.490636 36.270404 10.729325 36.479826 10.990234 36.652344 C 11.251143 36.824862 11.52775 37 12 37 C 12.073056 37 12.139887 36.97866 12.210938 36.970703 C 12.755868 38.642073 13.387792 40.195787 14.130859 41.496094 L 14.148438 41.525391 L 14.167969 41.554688 C 15.295976 43.246699 17.123956 44.787135 18.958984 45.966797 C 20.794013 47.146405 22.5 48 24 48 C 25.5 48 27.205987 47.146458 29.041016 45.966797 C 30.876044 44.787135 32.704024 43.246699 33.832031 41.554688 L 33.851562 41.525391 L 33.869141 41.496094 C 34.612208 40.195787 35.244132 38.642073 35.789062 36.970703 C 35.860113 36.97866 35.926944 37 36 37 C 36.47225 37 36.748857 36.824862 37.009766 36.652344 C 37.270675 36.479826 37.509364 36.270404 37.751953 36.029297 C 38.237132 35.547083 38.733187 34.930784 39.199219 34.253906 C 40.131282 32.900151 41 31.462054 41 30 C 41 28.278242 40.9077 26.975905 40.630859 25.972656 C 40.492439 25.471032 40.310132 25.030728 39.980469 24.652344 C 39.650806 24.27396 39.107151 24 38.583984 24 C 38.520042 24 38.46177 24.009441 38.400391 24.013672 C 38.549452 22.777976 38.695729 21.530451 38.783203 20.621094 L 38.783203 20.619141 C 38.912644 19.778419 39 18.906386 39 18 C 39 9.2115738 32.311065 2 24 2 z M 24 4 C 31.152935 4 37 10.220426 37 18 C 37 18.778943 36.92504 19.547757 36.806641 20.316406 L 36.802734 20.345703 L 36.798828 20.373047 C 36.346627 25.086034 34.946123 35.542344 32.144531 40.472656 C 31.267797 41.773918 29.612859 43.219998 27.958984 44.283203 C 26.294 45.353543 24.5 46 24 46 C 23.5 46 21.705987 45.353542 20.041016 44.283203 C 18.387141 43.219998 16.732203 41.773918 15.855469 40.472656 C 13.053877 35.542344 11.653373 25.086034 11.201172 20.373047 L 11.197266 20.345703 L 11.193359 20.316406 C 11.074946 19.547756 11 18.778943 11 18 C 11 10.220426 16.847065 4 24 4 z M 21 20 C 17.958222 20 15.353056 20.109347 13.515625 21.125 L 14.484375 22.875 C 15.584944 22.266653 18.041778 22 21 22 L 21 20 z M 27 20 L 27 22 C 29.958222 22 32.415056 22.266653 33.515625 22.875 L 34.484375 21.125 C 32.646944 20.109347 30.041778 20 27 20 z M 19.029297 24 C 17.191072 24 15.404144 24.473878 14.390625 24.787109 C 13.451928 25.07634 12.837026 26.049604 13.039062 27.037109 C 13.181356 27.73197 13.487312 28.690548 14.238281 29.525391 C 14.989251 30.360233 16.217912 31 17.841797 31 C 19.022189 31 20.115776 30.609997 21 29.974609 L 21 32 C 21 32.833333 21.385834 33.549896 21.917969 34.082031 C 22.450104 34.614166 23.166667 35 24 35 L 25 35 L 25 33 L 24 33 C 23.833333 33 23.549896 32.885834 23.332031 32.667969 C 23.114166 32.450104 23 32.166667 23 32 L 23 26 L 22.970703 26 C 22.904724 25.521753 22.670269 25.069238 22.351562 24.783203 C 21.977418 24.447413 21.559718 24.289784 21.160156 24.1875 C 20.361033 23.982932 19.557797 24 19.029297 24 z M 28.970703 24 C 28.442203 24 27.638967 23.98293 26.839844 24.1875 C 26.440282 24.289784 26.022582 24.447413 25.648438 24.783203 C 25.274293 25.118993 25 25.682433 25 26.25 C 25 28.924197 27.378214 31 30.158203 31 C 31.782088 31 33.010749 30.360233 33.761719 29.525391 C 34.512688 28.690548 34.818644 27.73197 34.960938 27.037109 C 35.162973 26.049604 34.548072 25.07634 33.609375 24.787109 L 33.607422 24.787109 C 32.593732 24.473875 30.808175 24 28.970703 24 z M 19.029297 26 C 19.557797 26 20.242436 26.01707 20.664062 26.125 C 20.860889 26.17538 20.964525 26.239774 20.994141 26.261719 C 20.985855 27.731734 19.642251 29 17.841797 29 C 16.697681 29 16.135094 28.643611 15.726562 28.189453 C 15.332998 27.751932 15.128308 27.16089 15.025391 26.691406 C 15.625572 26.507316 16.538303 26.276219 17.503906 26.132812 A 1 1 0 0 0 17 27 A 1 1 0 0 0 18 28 A 1 1 0 0 0 19 27 A 1 1 0 0 0 18.294922 26.044922 C 18.540729 26.025069 18.788396 26 19.029297 26 z M 28.970703 26 C 29.212242 26 29.460571 26.02497 29.707031 26.044922 A 1 1 0 0 0 29 27 A 1 1 0 0 0 30 28 A 1 1 0 0 0 31 27 A 1 1 0 0 0 30.494141 26.132812 C 31.460465 26.276185 32.374029 26.507193 32.974609 26.691406 C 32.871692 27.16089 32.667003 27.751932 32.273438 28.189453 C 31.864907 28.643611 31.302319 29 30.158203 29 C 28.357749 29 27.014145 27.731734 27.005859 26.261719 C 27.035475 26.239774 27.139111 26.175385 27.335938 26.125 C 27.757563 26.017068 28.442203 26 28.970703 26 z M 9.4941406 26.042969 C 9.6371767 26.066821 9.7670793 26.132257 9.8828125 26.208984 C 10.249761 28.794691 10.763584 31.657854 11.478516 34.408203 C 11.155919 34.061509 10.795153 33.623539 10.449219 33.121094 C 9.6312788 31.933101 9 30.370946 9 30 C 9 28.360758 9.1157166 27.162361 9.296875 26.505859 C 9.374379 26.224993 9.4508 26.107701 9.4941406 26.042969 z M 38.505859 26.042969 C 38.549199 26.107699 38.625621 26.224993 38.703125 26.505859 C 38.884283 27.162361 39 28.360758 39 30 C 39 30.370946 38.368718 31.933099 37.550781 33.121094 C 37.204847 33.623539 36.844081 34.061509 36.521484 34.408203 C 37.236416 31.657854 37.750239 28.794691 38.117188 26.208984 C 38.233271 26.132441 38.3629 26.066695 38.505859 26.042969 z M 23.980469 37 C 22.800469 37 21.73 37.130078 21 37.330078 C 21.73 38.350078 22.790469 39 23.980469 39 C 25.170469 39 26.230937 38.350078 26.960938 37.330078 C 26.230938 37.130078 25.160469 37 23.980469 37 z"/>
</svg>