<svg style="display:none;">
    <symbol xmlns="http://www.w3.org/2000/svg" id="icon-photo" viewBox="0 0 24 24">
        <path fill="currentColor" d="M 10.441406 3 C 9.1537708 3 8.002646 3.8304098 7.5957031 5.0527344 L 7.2792969 6 L 4 6 C 2.9069372 6 2 6.9069372 2 8 L 2 19 C 2 20.093063 2.9069372 21 4 21 L 20 21 C 21.093063 21 22 20.093063 22 19 L 22 8 C 22 6.9069372 21.093063 6 20 6 L 16.720703 6 L 16.404297 5.0527344 C 15.997586 3.8311067 14.846229 3 13.558594 3 L 10.441406 3 z M 10.441406 5 L 13.558594 5 C 13.992958 5 14.370523 5.2712214 14.507812 5.6835938 L 15.279297 8 L 20 8 L 20 19 L 4 19 L 4 8 L 8.7207031 8 L 9.4921875 5.6835938 C 9.6292447 5.2719183 10.007042 5 10.441406 5 z M 12 9 C 9.8026661 9 8 10.802666 8 13 C 8 15.197334 9.8026661 17 12 17 C 14.197334 17 16 15.197334 16 13 C 16 10.802666 14.197334 9 12 9 z M 12 11 C 13.116666 11 14 11.883334 14 13 C 14 14.116666 13.116666 15 12 15 C 10.883334 15 10 14.116666 10 13 C 10 11.883334 10.883334 11 12 11 z"/>
    </symbol>

    <symbol xmlns="http://www.w3.org/2000/svg" id="icon-face" viewBox="0 0 50 50">
        <path fill="currentColor" d="M 24 2 C 15.688935 2 9 9.2115738 9 18 C 9 18.906386 9.087356 19.778366 9.2167969 20.619141 C 9.2167969 20.619141 9.2167969 20.621094 9.2167969 20.621094 C 9.3042708 21.530451 9.4505479 22.777976 9.5996094 24.013672 C 9.5382339 24.009442 9.4799584 24 9.4160156 24 C 8.892849 24 8.3491943 24.27396 8.0195312 24.652344 C 7.6898683 25.030728 7.5075614 25.471032 7.3691406 25.972656 C 7.092299 26.975905 7 28.278242 7 30 C 7 31.462054 7.8687181 32.900151 8.8007812 34.253906 C 9.266813 34.930784 9.7628682 35.547083 10.248047 36.029297 C 10.490636 36.270404 10.729325 36.479826 10.990234 36.652344 C 11.251143 36.824862 11.52775 37 12 37 C 12.073056 37 12.139887 36.97866 12.210938 36.970703 C 12.755868 38.642073 13.387792 40.195787 14.130859 41.496094 L 14.148438 41.525391 L 14.167969 41.554688 C 15.295976 43.246699 17.123956 44.787135 18.958984 45.966797 C 20.794013 47.146405 22.5 48 24 48 C 25.5 48 27.205987 47.146458 29.041016 45.966797 C 30.876044 44.787135 32.704024 43.246699 33.832031 41.554688 L 33.851562 41.525391 L 33.869141 41.496094 C 34.612208 40.195787 35.244132 38.642073 35.789062 36.970703 C 35.860113 36.97866 35.926944 37 36 37 C 36.47225 37 36.748857 36.824862 37.009766 36.652344 C 37.270675 36.479826 37.509364 36.270404 37.751953 36.029297 C 38.237132 35.547083 38.733187 34.930784 39.199219 34.253906 C 40.131282 32.900151 41 31.462054 41 30 C 41 28.278242 40.9077 26.975905 40.630859 25.972656 C 40.492439 25.471032 40.310132 25.030728 39.980469 24.652344 C 39.650806 24.27396 39.107151 24 38.583984 24 C 38.520042 24 38.46177 24.009441 38.400391 24.013672 C 38.549452 22.777976 38.695729 21.530451 38.783203 20.621094 L 38.783203 20.619141 C 38.912644 19.778419 39 18.906386 39 18 C 39 9.2115738 32.311065 2 24 2 z M 24 4 C 31.152935 4 37 10.220426 37 18 C 37 18.778943 36.92504 19.547757 36.806641 20.316406 L 36.802734 20.345703 L 36.798828 20.373047 C 36.346627 25.086034 34.946123 35.542344 32.144531 40.472656 C 31.267797 41.773918 29.612859 43.219998 27.958984 44.283203 C 26.294 45.353543 24.5 46 24 46 C 23.5 46 21.705987 45.353542 20.041016 44.283203 C 18.387141 43.219998 16.732203 41.773918 15.855469 40.472656 C 13.053877 35.542344 11.653373 25.086034 11.201172 20.373047 L 11.197266 20.345703 L 11.193359 20.316406 C 11.074946 19.547756 11 18.778943 11 18 C 11 10.220426 16.847065 4 24 4 z M 21 20 C 17.958222 20 15.353056 20.109347 13.515625 21.125 L 14.484375 22.875 C 15.584944 22.266653 18.041778 22 21 22 L 21 20 z M 27 20 L 27 22 C 29.958222 22 32.415056 22.266653 33.515625 22.875 L 34.484375 21.125 C 32.646944 20.109347 30.041778 20 27 20 z M 19.029297 24 C 17.191072 24 15.404144 24.473878 14.390625 24.787109 C 13.451928 25.07634 12.837026 26.049604 13.039062 27.037109 C 13.181356 27.73197 13.487312 28.690548 14.238281 29.525391 C 14.989251 30.360233 16.217912 31 17.841797 31 C 19.022189 31 20.115776 30.609997 21 29.974609 L 21 32 C 21 32.833333 21.385834 33.549896 21.917969 34.082031 C 22.450104 34.614166 23.166667 35 24 35 L 25 35 L 25 33 L 24 33 C 23.833333 33 23.549896 32.885834 23.332031 32.667969 C 23.114166 32.450104 23 32.166667 23 32 L 23 26 L 22.970703 26 C 22.904724 25.521753 22.670269 25.069238 22.351562 24.783203 C 21.977418 24.447413 21.559718 24.289784 21.160156 24.1875 C 20.361033 23.982932 19.557797 24 19.029297 24 z M 28.970703 24 C 28.442203 24 27.638967 23.98293 26.839844 24.1875 C 26.440282 24.289784 26.022582 24.447413 25.648438 24.783203 C 25.274293 25.118993 25 25.682433 25 26.25 C 25 28.924197 27.378214 31 30.158203 31 C 31.782088 31 33.010749 30.360233 33.761719 29.525391 C 34.512688 28.690548 34.818644 27.73197 34.960938 27.037109 C 35.162973 26.049604 34.548072 25.07634 33.609375 24.787109 L 33.607422 24.787109 C 32.593732 24.473875 30.808175 24 28.970703 24 z M 19.029297 26 C 19.557797 26 20.242436 26.01707 20.664062 26.125 C 20.860889 26.17538 20.964525 26.239774 20.994141 26.261719 C 20.985855 27.731734 19.642251 29 17.841797 29 C 16.697681 29 16.135094 28.643611 15.726562 28.189453 C 15.332998 27.751932 15.128308 27.16089 15.025391 26.691406 C 15.625572 26.507316 16.538303 26.276219 17.503906 26.132812 A 1 1 0 0 0 17 27 A 1 1 0 0 0 18 28 A 1 1 0 0 0 19 27 A 1 1 0 0 0 18.294922 26.044922 C 18.540729 26.025069 18.788396 26 19.029297 26 z M 28.970703 26 C 29.212242 26 29.460571 26.02497 29.707031 26.044922 A 1 1 0 0 0 29 27 A 1 1 0 0 0 30 28 A 1 1 0 0 0 31 27 A 1 1 0 0 0 30.494141 26.132812 C 31.460465 26.276185 32.374029 26.507193 32.974609 26.691406 C 32.871692 27.16089 32.667003 27.751932 32.273438 28.189453 C 31.864907 28.643611 31.302319 29 30.158203 29 C 28.357749 29 27.014145 27.731734 27.005859 26.261719 C 27.035475 26.239774 27.139111 26.175385 27.335938 26.125 C 27.757563 26.017068 28.442203 26 28.970703 26 z M 9.4941406 26.042969 C 9.6371767 26.066821 9.7670793 26.132257 9.8828125 26.208984 C 10.249761 28.794691 10.763584 31.657854 11.478516 34.408203 C 11.155919 34.061509 10.795153 33.623539 10.449219 33.121094 C 9.6312788 31.933101 9 30.370946 9 30 C 9 28.360758 9.1157166 27.162361 9.296875 26.505859 C 9.374379 26.224993 9.4508 26.107701 9.4941406 26.042969 z M 38.505859 26.042969 C 38.549199 26.107699 38.625621 26.224993 38.703125 26.505859 C 38.884283 27.162361 39 28.360758 39 30 C 39 30.370946 38.368718 31.933099 37.550781 33.121094 C 37.204847 33.623539 36.844081 34.061509 36.521484 34.408203 C 37.236416 31.657854 37.750239 28.794691 38.117188 26.208984 C 38.233271 26.132441 38.3629 26.066695 38.505859 26.042969 z M 23.980469 37 C 22.800469 37 21.73 37.130078 21 37.330078 C 21.73 38.350078 22.790469 39 23.980469 39 C 25.170469 39 26.230937 38.350078 26.960938 37.330078 C 26.230938 37.130078 25.160469 37 23.980469 37 z"/>
    </symbol>

    <symbol xmlns="http://www.w3.org/2000/svg" id="icon-heart" viewBox="0 0 26 25">
        <g id="surface1">
            <path fill="currentColor" style=" stroke:none;fill-rule:nonzero;fill-opacity:1;" d="M 22.980469 3.550781 C 21.671875 2.242188 19.9375 1.527344 18.089844 1.527344 C 16.238281 1.527344 14.5 2.246094 13.191406 3.554688 L 12.507812 4.238281 L 11.8125 3.546875 C 10.503906 2.238281 8.761719 1.511719 6.910156 1.511719 C 5.066406 1.511719 3.328125 2.230469 2.023438 3.535156 C 0.714844 4.84375 -0.00390625 6.582031 0 8.433594 C 0 10.28125 0.726562 12.015625 2.035156 13.324219 L 11.988281 23.277344 C 12.125 23.414062 12.3125 23.488281 12.492188 23.488281 C 12.671875 23.488281 12.859375 23.421875 12.996094 23.28125 L 22.96875 13.34375 C 24.277344 12.035156 25 10.296875 25 8.449219 C 25.003906 6.597656 24.289062 4.859375 22.980469 3.550781 Z M 21.964844 12.332031 L 12.492188 21.765625 L 3.042969 12.316406 C 2.003906 11.277344 1.429688 9.902344 1.429688 8.433594 C 1.429688 6.964844 2 5.585938 3.035156 4.550781 C 4.070312 3.519531 5.449219 2.945312 6.910156 2.945312 C 8.378906 2.945312 9.761719 3.519531 10.800781 4.558594 L 12 5.753906 C 12.28125 6.035156 12.730469 6.035156 13.011719 5.753906 L 14.199219 4.570312 C 15.238281 3.53125 16.621094 2.957031 18.082031 2.957031 C 19.546875 2.957031 20.925781 3.53125 21.964844 4.5625 C 23 5.601562 23.570312 6.980469 23.570312 8.449219 C 23.574219 9.917969 23 11.292969 21.964844 12.332031 Z M 21.964844 12.332031 "/>
        </g>
    </symbol>

    <symbol xmlns="http://www.w3.org/2000/svg" id="icon-check"  viewBox="0 0 24 24">
        <path fill="currentColor" d="M 12 2 C 6.486 2 2 6.486 2 12 C 2 17.514 6.486 22 12 22 C 17.514 22 22 17.514 22 12 C 22 10.874 21.803984 9.7942031 21.458984 8.7832031 L 19.839844 10.402344 C 19.944844 10.918344 20 11.453 20 12 C 20 16.411 16.411 20 12 20 C 7.589 20 4 16.411 4 12 C 4 7.589 7.589 4 12 4 C 13.633 4 15.151922 4.4938906 16.419922 5.3378906 L 17.851562 3.90625 C 16.203562 2.71225 14.185 2 12 2 z M 21.292969 3.2929688 L 11 13.585938 L 7.7070312 10.292969 L 6.2929688 11.707031 L 11 16.414062 L 22.707031 4.7070312 L 21.292969 3.2929688 z"/>
    </symbol>

    <symbol id="icon-smile" viewBox="0 0 24 24" fill="none" xmlns="http://www.w3.org/2000/svg">
        <path d="M12 22C6.47715 22 2 17.5228 2 12C2 6.47715 6.47715 2 12 2C17.5228 2 22 6.47715 22 12C22 17.5228 17.5228 22 12 22Z" stroke="currentColor" stroke-width="1.5" stroke-linecap="round" stroke-linejoin="round"/>
        <path d="M16.5 14.5C16.5 14.5 15 16.5 12 16.5C9 16.5 7.5 14.5 7.5 14.5" stroke="currentColor" stroke-width="1.5" stroke-linecap="round" stroke-linejoin="round"/>
        <path d="M15.5 9C15.2239 9 15 8.77614 15 8.5C15 8.22386 15.2239 8 15.5 8C15.7761 8 16 8.22386 16 8.5C16 8.77614 15.7761 9 15.5 9Z" fill="black" stroke="currentColor" stroke-width="1.5" stroke-linecap="round" stroke-linejoin="round"/>
        <path d="M8.5 9C8.22386 9 8 8.77614 8 8.5C8 8.22386 8.22386 8 8.5 8C8.77614 8 9 8.22386 9 8.5C9 8.77614 8.77614 9 8.5 9Z" fill="black" stroke="currentColor" stroke-width="1.5" stroke-linecap="round" stroke-linejoin="round"/>
    </symbol>

    <symbol id="icon-phone" viewBox="0 0 25 25" xmlns="http://www.w3.org/2000/svg">
        <g id="surface1">
            <path fill="currentColor" style="stroke:none;fill-rule:nonzero;fill-opacity:1;" d="M 23.296875 16.625 C 22.027344 15.605469 20.863281 15.109375 19.734375 15.109375 C 18.105469 15.109375 16.933594 16.144531 15.871094 17.207031 C 15.75 17.328125 15.601562 17.386719 15.40625 17.386719 C 14.511719 17.386719 12.933594 16.265625 10.722656 14.054688 C 8.125 11.453125 7.140625 9.800781 7.800781 9.136719 C 9.59375 7.347656 10.152344 5.550781 7.410156 2.136719 C 6.425781 0.914062 5.464844 0.320312 4.46875 0.320312 C 3.128906 0.320312 2.109375 1.394531 1.210938 2.339844 C 1.054688 2.503906 0.90625 2.65625 0.761719 2.800781 C -0.253906 3.816406 -0.253906 6.035156 0.765625 8.734375 C 1.882812 11.695312 4.085938 14.917969 6.972656 17.804688 C 9.207031 20.039062 11.636719 21.84375 14 23.054688 C 16.066406 24.113281 18.066406 24.679688 19.636719 24.679688 C 20.621094 24.679688 21.421875 24.464844 21.949219 24.027344 C 23.019531 23.144531 25.011719 21.503906 25 19.554688 C 24.992188 18.507812 24.417969 17.527344 23.296875 16.625 Z M 23.296875 16.625 "/>
        </g>
    </symbol>

    <symbol id="icon-video" viewBox="0 0 25 25" xmlns="http://www.w3.org/2000/svg">
        <g id="surface1">
            <path fill="currentColor" style="stroke:none;fill-rule:nonzero;fill-opacity:1;" d="M 18.75 7.292969 C 18.75 6.144531 17.816406 5.207031 16.667969 5.207031 L 4.167969 5.207031 C 3.019531 5.207031 2.082031 6.144531 2.082031 7.292969 L 2.082031 17.707031 C 2.082031 18.855469 3.019531 19.792969 4.167969 19.792969 L 16.667969 19.792969 C 17.816406 19.792969 18.75 18.855469 18.75 17.707031 L 18.75 14.238281 L 22.917969 17.707031 L 22.917969 7.292969 L 18.75 10.761719 Z M 18.75 7.292969 "/>
        </g>
    </symbol>

    <symbol id="icon-left" xmlns="http://www.w3.org/2000/svg" viewBox="0 0 320 512">
        <path fill="currentColor" d="M224 480c-8.188 0-16.38-3.125-22.62-9.375l-192-192c-12.5-12.5-12.5-32.75 0-45.25l192-192c12.5-12.5 32.75-12.5 45.25 0s12.5 32.75 0 45.25L77.25 256l169.4 169.4c12.5 12.5 12.5 32.75 0 45.25C240.4 476.9 232.2 480 224 480z"/>
    </symbol>
</svg>